<svg xmlns="http://www.w3.org/2000/svg" width="34" height="33" fill="none"><g clip-path="url(#a)"><path  d="M8 6h18.788v19.983a.1.1 0 0 1-.058.016c-.193.007-.388.001-.582.001h-1.147c-.146 0-.727.02-.84-.01-.063.023-.558.019-.62-.002-.076.036-.238.012-.322.009a4 4 0 0 1-.379 0 6 6 0 0 1-.505 0c-.099.009-.386.024-.474-.009-.088.032-.62.012-.753.012h-5.883c-.729 0-1.459.008-2.187 0-.03 0-.05 0-.078-.012-.093.036-.37.013-.48.01a6 6 0 0 1-.524 0 5 5 0 0 1-.37 0c-.092.007-.262.021-.348-.01l-.01.005c-.063.018-.62.018-.668-.01-.01.005-.013.008-.023.011-.06.02-2.25.012-2.473.005A.1.1 0 0 1 8 25.983zm1.402 7.144-.017.011c-.019.112-.005.244-.005.358v.772l-.001 2.784v5.718c0 .212-.018.442.004.652.017.167.164.418.258.554.15.214.339.361.56.489.053.03.113.07.173.082.14.026.3.01.442.01l.85.002 3.17.002 6.263.01 2.15.005h.657c.116 0 .236.008.352-.001.188-.016.42-.154.57-.266a1.4 1.4 0 0 0 .284-.283c.084-.119.26-.409.284-.55.027-.152.007-.56.007-.742l.001-1.658v-7.08c0-.286-.015-.58 0-.864-.295-.007-.592-.003-.888-.002l-1.54-.001-5.492-.003h-7.118c-.32 0-.644-.008-.964 0M8 6v19.983a.1.1 0 0 0 .064.016c.223.007 2.413.015 2.473-.005.01-.003.014-.006.023-.01l-.01-.02c-.057.01-.12.002-.177-.002-.398-.028-.807-.222-1.133-.453a3 3 0 0 1-.367-.304 2.8 2.8 0 0 1-.42-.522 3 3 0 0 1-.185-.338 1.9 1.9 0 0 1-.168-.482c-.045-.258-.048-.529-.059-.79-.025-.608-.02-1.216-.022-1.824l-.003-4.666.003-4.356q-.005-.858.009-1.717c.006-.266.005-.54.038-.805.04-.32.219-.695.397-.957.106-.157.233-.3.364-.436.42-.436.87-.71 1.463-.817.385-.07.79-.068 1.18-.068q.002.504.01 1.01c.005.252-.014.659.054.892.058.201.214.41.358.555.366.37.594.384 1.076.378.378-.005.625-.12.893-.4.135-.143.269-.327.327-.519.068-.223.051-.494.056-.726.007-.397.004-.794.016-1.19l1.347-.002c.245 0 .492-.006.737.001l.013 1.022c.004.271-.019.635.062.894.064.205.205.411.355.56.295.293.692.389 1.093.382.327-.006.658-.192.88-.432.152-.163.288-.386.347-.605.05-.187.04-.403.041-.596q.003-.342 0-.684c0-.18-.007-.361.005-.54h2.084q.003.594.018 1.19c.006.231-.013.497.053.72.058.197.193.401.335.545.298.303.692.405 1.101.4.329-.004.655-.176.881-.415.161-.17.303-.406.364-.636.058-.222.036-.483.037-.712q.001-.546-.002-1.09c.905.104 1.578.356 2.166 1.114.258.333.49.768.55 1.193.024.175.022.36.027.536.012.431.006.863.007 1.294l.006 3.717-.005 5.415-.002 1.81c0 .377.01.815-.031 1.187-.072.634-.564 1.321-1.043 1.709-.437.352-.965.571-1.524.572v.015c.112.029.694.01.84.01h1.146c.194 0 .39.005.582-.002a.1.1 0 0 0 .058-.016V6zm2.55 19.963.01.02c.047.028.605.028.668.01l.01-.004a.17.17 0 0 1-.122-.013c-.082.022-.475.01-.566-.013m13.08.01c-.017.019-.02.022-.048.022q-.021-.001-.041-.007c.062.02.557.025.62.003v-.015c-.128.008-.408.024-.53-.003"/><path fill="#C4C4BC" d="m11.587 25.988.37.002v.008a4 4 0 0 1-.37 0zM22.84 25.99l.38-.002v.01a4 4 0 0 1-.38 0z"/><path fill="#2F3532" d="M21.86 25.988c.088.021.369.002.475.001v.008c-.099.009-.386.024-.474-.009M12.48 25.99c.113 0 .385.018.48-.002-.093.036-.37.013-.48.01z"/><path fill="#787E74" d="M22.335 25.99h.505v.008a5 5 0 0 1-.505 0zM11.956 25.99h.524v.008c-.172.01-.35.008-.524 0z"/><path fill="#C4C4BC" d="M23.22 25.988c.128-.008.288.02.41-.015-.017.019-.02.022-.048.022q-.021-.001-.041-.007c-.076.036-.238.012-.322.009zM11.116 25.976c.156.016.315.008.47.012v.01c-.092.007-.262.021-.348-.01a.17.17 0 0 1-.122-.012"/><path fill="#EDE9EE" fill-opacity=".984" d="M23.63 25.973c.123.027.403.011.532.003v.015c-.064.022-.559.018-.621-.003q.02.007.041.007c.028 0 .031-.003.049-.022"/><path fill="#EDE9EE" fill-opacity=".988" d="M10.55 25.963c.091.023.484.035.566.013a.17.17 0 0 0 .122.013l-.01.003c-.063.02-.62.019-.668-.009z"/><path  d="M22.56 6.023a.7.7 0 0 1 .512.18c.144.125.196.262.21.453.028.36.007.733.008 1.094 0 .26.004.52.002.78-.002.163.002.333-.024.493a.52.52 0 0 1-.168.324.7.7 0 0 1-.288.168 1 1 0 0 1-.131.025q-.01 0-.02.003a.68.68 0 0 1-.498-.162c-.147-.12-.179-.27-.199-.452-.048-.437-.03-.891-.031-1.33 0-.292-.023-.775.034-1.05.02-.1.07-.19.132-.268a.64.64 0 0 1 .46-.258M17.676 6.023c.166-.021.36.054.49.156a.56.56 0 0 1 .23.4c.021.158.013.323.014.481v1.493c-.001.144.006.295-.013.438a.55.55 0 0 1-.112.284c-.13.171-.308.244-.512.27a.74.74 0 0 1-.469-.146c-.148-.112-.188-.24-.213-.423-.058-.425-.04-.985-.04-1.422 0-.297-.022-.708.032-.994a.7.7 0 0 1 .13-.266.66.66 0 0 1 .463-.271M12.8 6.022a.74.74 0 0 1 .52.182c.143.124.19.263.204.45.033.439.02.883.02 1.323 0 .318.022.794-.04 1.094a.5.5 0 0 1-.136.254.6.6 0 0 1-.13.11.67.67 0 0 1-.318.104h-.001a.68.68 0 0 1-.487-.136c-.145-.108-.19-.235-.216-.41s-.029-.352-.034-.528a33 33 0 0 1-.008-.861c0-.306-.02-.704.027-1a.65.65 0 0 1 .12-.292.68.68 0 0 1 .478-.29M22.004 17.46l.06-.003q.369-.004.738-.002c.229.001.495-.019.717.042.106.03.208.09.286.17.232.234.177.675.178.981.001.247.01.52-.175.708-.176.18-.363.2-.6.2l-.885.002c-.188 0-.403.02-.586-.023a.6.6 0 0 1-.27-.147c-.177-.16-.211-.387-.226-.617-.021-.346-.055-.804.184-1.08.168-.193.34-.217.579-.232M19.041 20.311c.24-.003.816-.009 1.017.055.1.031.195.092.27.167.212.214.175.595.179.876.003.258.017.605-.174.802-.192.199-.419.206-.676.206l-.391-.001c-.26-.002-.827.038-1.053-.033a.65.65 0 0 1-.253-.158c-.181-.178-.203-.449-.209-.693-.007-.35-.044-.733.214-1.005a.64.64 0 0 1 .248-.166c.186-.064.616-.047.828-.05M18.586 14.598q.441-.009.881 0c.189.003.399-.01.581.041a.66.66 0 0 1 .258.15c.159.147.182.342.192.55.007.13.004.26.004.39 0 .25.02.552-.16.75-.177.197-.4.216-.648.223l-.76.002c-.223 0-.49.025-.703-.035a.64.64 0 0 1-.256-.148c-.18-.168-.21-.411-.218-.648-.004-.112 0-.225 0-.337.003-.274.002-.508.197-.72.183-.202.38-.21.632-.218M11.566 17.46l.019-.002c.209-.011.421-.004.63-.003.265 0 .589-.024.844.04a.65.65 0 0 1 .282.155c.171.162.182.392.19.616.01.308.061.84-.16 1.079-.172.185-.368.208-.604.214a50 50 0 0 1-.952.003c-.172-.002-.37.012-.538-.03a.6.6 0 0 1-.257-.142c-.186-.168-.218-.403-.233-.645-.02-.347-.05-.78.191-1.056.177-.203.336-.215.588-.23M11.857 20.311c.305.001.973-.024 1.233.054.099.03.19.089.265.162.196.194.185.53.189.79.004.274.023.684-.176.89-.246.255-.57.208-.889.211q-.049 0-.098.002c-.249.01-.899.03-1.123-.036A.64.64 0 0 1 11 22.23c-.184-.177-.206-.444-.215-.689-.012-.346-.044-.732.205-1.003.168-.184.316-.204.551-.214zM15.152 14.598h.012c.265-.01.53-.005.795 0 .191.003.407-.013.592.038a.7.7 0 0 1 .285.166c.159.154.175.372.181.582.009.309.052.871-.163 1.101-.195.209-.438.215-.701.218l-.728.001c-.218 0-.472.02-.684-.04a.6.6 0 0 1-.258-.152c-.192-.186-.204-.468-.211-.722-.01-.344-.044-.713.206-.98.204-.22.397-.205.674-.212M15.028 17.46c.199-.015.406-.005.605-.004.264 0 .645-.025.9.037a.66.66 0 0 1 .278.147c.151.133.193.318.205.513.009.137.005.276.004.413-.001.259.022.566-.159.773-.165.188-.371.213-.603.222q-.45.003-.903 0c-.19 0-.414.018-.6-.029a.6.6 0 0 1-.247-.139c-.189-.166-.218-.386-.233-.629a5 5 0 0 1-.008-.374c.002-.258.012-.49.187-.692.182-.21.314-.22.574-.238M15.378 20.311c.28-.001.936-.02 1.181.052a.7.7 0 0 1 .287.17c.208.206.174.576.176.85.002.278.027.62-.182.834-.24.245-.59.208-.902.208-.283 0-.975.03-1.203-.039a.7.7 0 0 1-.251-.154c-.171-.162-.202-.406-.211-.632a10 10 0 0 1-.004-.353c0-.27.013-.502.203-.71.165-.18.332-.204.563-.213zM22.087 14.598c.281-.01 1.18-.028 1.423.036a.65.65 0 0 1 .286.161c.19.184.188.48.194.729.006.3.045.73-.176.963-.183.194-.402.212-.653.216h-.758c-.219 0-.487.025-.698-.036a.7.7 0 0 1-.25-.152c-.204-.19-.21-.492-.22-.756-.011-.322-.027-.687.202-.938.202-.221.372-.214.65-.223M18.565 17.46c.244-.009.49-.006.734-.005.227 0 .52-.017.739.042a.64.64 0 0 1 .26.145c.158.145.193.342.202.55.012.261.03.699-.045.944a.6.6 0 0 1-.116.205c-.182.201-.391.214-.641.221l-.771.001c-.223 0-.482.02-.698-.036a.6.6 0 0 1-.25-.142c-.18-.163-.21-.404-.225-.636-.007-.113-.005-.227-.005-.34 0-.27.01-.508.195-.72.187-.215.356-.216.62-.23"/></g><defs><clipPath id="a"><path fill="#fff" d="M0 0h34v33H0z"/></clipPath></defs></svg>