<svg xmlns="http://www.w3.org/2000/svg" width="20" height="21" fill="none"><path d="M3.425 5.16a1.97 1.97 0 0 1 1.374.397 1.89 1.89 0 0 1 .385 2.596l-.057.076c-.337.428-.804.659-1.342.727-.492.027-.952-.089-1.346-.386a2 2 0 0 1-.5-.557 1.9 1.9 0 0 1-.26-.89l-.001-.093a1.88 1.88 0 0 1 .393-1.125c.343-.444.802-.67 1.354-.744M16.22 5.163c.52-.045 1.013.075 1.428.393a1.88 1.88 0 0 1 .721 1.262 1.8 1.8 0 0 1-.01.56 1.8 1.8 0 0 1-.1.36 2 2 0 0 1-.168.335 2 2 0 0 1-.108.153c-.337.425-.803.66-1.34.726l-.007.001c-.393.079-.958-.11-1.279-.331a1.9 1.9 0 0 1-.47-.46 1.8 1.8 0 0 1-.188-.325 2 2 0 0 1-.139-.447c-.088-.49.02-1.013.311-1.421.33-.463.793-.711 1.35-.806M9.815 4.755c.573-.035 1.119.104 1.579.45a2.2 2.2 0 0 1 .622.732 2 2 0 0 1 .161.397 2.2 2.2 0 0 1 .088.533q.002.055.001.11a2.4 2.4 0 0 1-.049.437 2.3 2.3 0 0 1-.181.519 2.3 2.3 0 0 1-.234.374c-.394.502-.942.768-1.571.847-.485.077-1.114-.13-1.504-.409a2.2 2.2 0 0 1-.928-1.765 2.2 2.2 0 0 1 .256-1.051 2 2 0 0 1 .175-.278c.395-.53.937-.8 1.585-.896M1.89 9.082c.19.013.365.185.533.269.36.18.795.28 1.198.275a2.7 2.7 0 0 0 1.269-.328c.168-.093.29-.23.499-.214.295.022.55.223.737.436-.702 1.23-.768 2.659-.814 4.038-.007.22-.002.442 0 .663.001.102.015.225-.007.325-.038.029-.074.023-.122.026-.548.044-1.109.031-1.658.031-.721 0-1.485.028-2.195-.113-.23-.046-.48-.119-.664-.27a.76.76 0 0 1-.284-.553c-.024-.284-.004-.582 0-.867.016-.966.06-2.54.714-3.306.21-.244.47-.385.793-.412M14.688 9.083c.237-.011.478.225.692.318a2.8 2.8 0 0 0 .673.194 2.8 2.8 0 0 0 .632.02 2.7 2.7 0 0 0 .88-.229c.168-.074.313-.205.482-.269.17-.063.34-.015.497.056.401.18.628.587.774.978.124.332.194.69.245 1.04.075.507.213 2.409.025 2.797a.77.77 0 0 1-.42.375c-.004.005-.004.007-.01.011-.204.16-1.069.217-1.355.232-.428.022-.862.01-1.29.01-.603 0-1.203.007-1.804-.035.063-.102-.007-1.674-.02-1.905-.05-.935-.165-1.94-.572-2.796-.054-.113-.124-.274-.218-.358.066-.043.12-.103.179-.155.184-.16.368-.246.61-.284M11.982 9.322a1 1 0 0 1 .168.013c.359.057.66.277.869.563.698.959.755 2.768.765 3.918.002.31.034.655-.018.96a.84.84 0 0 1-.354.543c-.24.167-.534.241-.82.29-.856.147-1.753.111-2.619.112-.805 0-1.641.034-2.438-.099-.268-.04-.548-.107-.785-.242-.214-.122-.37-.291-.434-.53-.078-.288-.04-.678-.037-.978.01-1.143.04-2.78.636-3.786.206-.349.499-.632.904-.735.31-.078.44.064.688.208a3 3 0 0 0 .835.33 3 3 0 0 0 .626.078 3 3 0 0 0 1.063-.168 3 3 0 0 0 .538-.247c.133-.08.26-.191.413-.23"/></svg>