<svg xmlns="http://www.w3.org/2000/svg" width="13" height="13" fill="none"><path d="M6.243.01c.105-.011.22-.003.327-.003a4.4 4.4 0 0 1 2.728.976 4.5 4.5 0 0 1 .843.883 5 5 0 0 1 .243.374 5 5 0 0 1 .25.498 5 5 0 0 1 .247.741 5 5 0 0 1 .066.329 4.8 4.8 0 0 1-.03 1.638c-.366 1.982-1.872 4.3-3.074 5.896q-.402.533-.824 1.05c-.116.143-.27.3-.372.445l-.004.005c-.048.048-.088.104-.134.153-.096-.09-.181-.207-.267-.307q-.345-.408-.673-.829c-1.391-1.764-3.24-4.5-3.529-6.756a4.7 4.7 0 0 1-.016-.987 4.5 4.5 0 0 1 .35-1.378 4.5 4.5 0 0 1 .613-1.026A4.53 4.53 0 0 1 4.843.324 4.5 4.5 0 0 1 5.62.09c.207-.042.414-.053.623-.08m.121 2.923c-.465.07-.862.261-1.147.65-.245.336-.369.774-.306 1.189A1.65 1.65 0 0 0 5.8 6.008a1.63 1.63 0 0 0 .845.163c.47-.067.858-.263 1.148-.65.239-.32.366-.76.31-1.16a1.65 1.65 0 0 0-.793-1.214 1.6 1.6 0 0 0-.817-.218c-.042 0-.088-.001-.129.004"/></svg>