<svg xmlns="http://www.w3.org/2000/svg" width="16" height="17" fill="none"><g clip-path="url(#a)"><path d="M6.185 4.35c-.04.047-.11.4-.16.503-.138.285-.503.292-.768.387l-.013.005c.14.008.464.098.588.165.258.14.27.463.346.715.084-.14.071-.39.19-.568.136-.204.53-.283.763-.331a2.4 2.4 0 0 1-.558-.148c-.323-.144-.273-.437-.384-.72zM2.428 6.428c-.034.054-.051.196-.066.264-.052.23-.121.567-.243.77a.65.65 0 0 1-.201.21c-.279.188-.79.28-1.122.36.323.07.658.147.965.27.295.118.378.289.471.58a4 4 0 0 1 .112.403c.025.105.045.214.088.313l.004.01q.013-.009.015-.023c.065-.251.107-.508.188-.755.03-.09.065-.18.116-.26a.6.6 0 0 1 .203-.2c.243-.15.82-.275 1.109-.337-.359-.056-.753-.133-1.078-.302a.6.6 0 0 1-.207-.153c-.173-.216-.26-.858-.352-1.141z"/><path d="M8.213.785C8.111.773 8 .78 7.896.78q-.333.004-.665.022c-.168.01-.348.013-.51.057.09.091.195.17.294.252a5 5 0 0 1 .435.388 6 6 0 0 1 1.41 2.14 6.1 6.1 0 0 1 .407 2.652 6.1 6.1 0 0 1-3.587 5.143l-.137.06a5.8 5.8 0 0 1-1.583.418 7 7 0 0 1-.796.032 5.3 5.3 0 0 1-.915-.07c-.58-.105-1.081-.283-1.623-.507a.8.8 0 0 0 .065.203c.872 1.975 2.393 3.405 4.403 4.181.66.242 1.33.39 2.032.437 1.354.09 2.565-.11 3.8-.682a7.2 7.2 0 0 0 1.917-1.268 8 8 0 0 0 .813-.854 8 8 0 0 0 .354-.47 7 7 0 0 0 .39-.626 8 8 0 0 0 .329-.66 7 7 0 0 0 .35-.97 8 8 0 0 0 .075-.286c.091-.358.177-.737.2-1.107q.026-.442.02-.884a8 8 0 0 0-.03-.78 7 7 0 0 0-.144-.795 8 8 0 0 0-.354-1.158 7.6 7.6 0 0 0-.531-1.09 8 8 0 0 0-.694-.993 8 8 0 0 0-.283-.324A7.76 7.76 0 0 0 9.327.948 8 8 0 0 0 8.213.785"/></g><defs><clipPath id="a"><path d="M16 .5H0v16h16z"/></clipPath></defs></svg>