<svg xmlns="http://www.w3.org/2000/svg" width="13" height="14" fill="none"><g clip-path="url(#a)"><path d="M6.414.152h.012A3.42 3.42 0 0 1 9 1.225a3.2 3.2 0 0 1 .5.72 3.05 3.05 0 0 1 .265 1.977 3 3 0 0 1-.488 1.13 3 3 0 0 1-.407.477 3.4 3.4 0 0 1-.638.481 3.4 3.4 0 0 1-1.3.434 4 4 0 0 1-.325.024c-.865.014-1.695-.253-2.337-.813a3.11 3.11 0 0 1-1.096-2.473 3 3 0 0 1 .13-.756 3 3 0 0 1 .318-.703 3 3 0 0 1 .43-.555C4.672.532 5.509.186 6.415.152"/><path d="M3.628 6.47q.02-.004.04.004c.065.03.131.102.19.145q.162.12.334.222a4.3 4.3 0 0 0 1.892.571c1.22.087 2.317-.175 3.252-.94.12.035.24.067.358.108a4 4 0 0 1 1.059.563 4 4 0 0 1 .304.255c.626.588.988 1.33.992 2.17v2.826c.001.175.012.357-.026.53a1 1 0 0 1-.244.461l-.053.055c-.385.365-.83.31-1.324.309H3.01c-.331 0-.7.014-1.027-.005a1.2 1.2 0 0 1-.386-.092 1.07 1.07 0 0 1-.62-.726 1 1 0 0 1-.023-.149c-.016-.207-.005-.422-.004-.63L.95 10.99l.001-1.028c0-.262-.007-.527.025-.787a2.6 2.6 0 0 1 .242-.825c.346-.718 1.007-1.26 1.74-1.612a7 7 0 0 1 .669-.268"/></g><defs><clipPath id="a"><path d="M0 0h13v14H0z"/></clipPath></defs></svg>