<svg xmlns="http://www.w3.org/2000/svg" width="13" height="13" fill="none"><g clip-path="url(#a)"><path d="M0 0h13v12.989a.1.1 0 0 1-.032.01c-.144.01-.296.001-.44.001-.095 0-.41.012-.483-.007a.9.9 0 0 1-.283 0l-.003.001c-.071.018-.458.006-.554.006H.38c-.113 0-.232.007-.345 0A.1.1 0 0 1 0 12.988V0m4.936 1.628c-.785.065-1.486.32-2.081.844-.063.055-.12.119-.18.178-.073.073-.149.141-.216.22a3.5 3.5 0 0 0-.618 1.05 3.4 3.4 0 0 0-.19.762 3.5 3.5 0 0 0 .019 1.041 3.6 3.6 0 0 0 .44 1.211 3.5 3.5 0 0 0 .652.804 3.6 3.6 0 0 0 1.178.719 3.5 3.5 0 0 0 1.395.205h.006c.988-.078 1.825-.478 2.472-1.23a3.6 3.6 0 0 0 .652-1.137 3.5 3.5 0 0 0 .171-1.554 3.5 3.5 0 0 0-.339-1.152 3.5 3.5 0 0 0-.647-.91 3.6 3.6 0 0 0-1.146-.78 3.4 3.4 0 0 0-.79-.229 3.5 3.5 0 0 0-.524-.046c-.08 0-.163-.003-.243.002zM5.49 0l.006.005c.028.02.23.03.276.035a5.1 5.1 0 0 1 2.401.954 5.16 5.16 0 0 1 1.594 1.911 5.15 5.15 0 0 1-.32 5.042c.106.08.196.174.289.268l.297.296 1.168 1.171 1.059 1.06.29.292c.072.072.148.143.21.224a1.1 1.1 0 0 1 .217.525c.038.287-.052.585-.23.813-.18.23-.424.336-.703.397.073.02.389.007.483.007.144 0 .296.01.44 0q.018-.002.032-.011V0zM0 5.497v7.492c.013.007.02.01.035.01.113.008.232.001.345.001h10.825c.096 0 .483.012.554-.006l.003-.001c-.044-.015-.094-.022-.14-.034a1 1 0 0 1-.356-.17 2 2 0 0 1-.268-.234q-.067-.074-.134-.149-.133-.135-.268-.268l-1.38-1.381c-.255-.261-.518-.517-.777-.774-.172-.17-.35-.334-.498-.526l-.175.107a5.1 5.1 0 0 1-1.865.669 5.13 5.13 0 0 1-5.094-2.32A5.1 5.1 0 0 1 .04 5.776c-.006-.04-.02-.25-.035-.271zM0 0v4.794a.1.1 0 0 0 .014-.03c.009-.044.008-.095.013-.14a5.489 5.489 0 0 1 .32-1.34A5.1 5.1 0 0 1 2.125.98 5.2 5.2 0 0 1 4.228.082c.06-.01.545-.072.551-.077L4.786 0z"/></g><defs><clipPath id="a"><path d="M0 0h13v13H0z"/></clipPath></defs></svg>