<svg xmlns="http://www.w3.org/2000/svg" width="18" height="19" fill="none"><g clip-path="url(#a)"><path d="M4.095 13.142a1.14 1.14 0 0 1 1.113.583 1.13 1.13 0 0 1-.084 1.204c-.131.172-.311.326-.465.48-.159.158-.438.468-.61.578a1.25 1.25 0 0 1-.605.188 1.2 1.2 0 0 1-.3-.035 1.2 1.2 0 0 1-.32-.14 1 1 0 0 1-.211-.174 1.1 1.1 0 0 1-.193-.275 1.1 1.1 0 0 1-.104-.318c-.048-.286.028-.6.197-.835.126-.174.309-.328.46-.48.176-.176.451-.485.652-.611.14-.09.307-.14.47-.165M3.363 2.806c.25-.026.558.078.752.233.153.122.29.277.428.416.194.193.507.467.644.691a1.12 1.12 0 0 1 .068 1.007 1.2 1.2 0 0 1-.17.286c-.201.242-.484.372-.794.402-.256.02-.56-.066-.759-.23-.158-.13-.3-.289-.445-.434-.173-.173-.48-.448-.6-.634a1.2 1.2 0 0 1-.18-.519c-.027-.294.074-.6.265-.826.198-.235.488-.366.791-.392M14.498 2.806h.007c.246-.023.528.078.723.223a1.1 1.1 0 0 1 .323.383 1.2 1.2 0 0 1 .117.373c.038.286-.048.6-.225.828-.13.167-.304.315-.455.465-.186.185-.43.476-.65.607-.15.09-.314.136-.487.158-.3.008-.58-.066-.815-.262a1.12 1.12 0 0 1-.395-.752c-.025-.308.068-.61.271-.846.113-.13.247-.25.37-.372.175-.175.483-.518.672-.635.166-.101.352-.156.544-.17M13.682 13.134c.293-.01.58.077.804.27.17.146.324.32.482.478.342.34.67.58.708 1.1a1.16 1.16 0 0 1-.276.812 1.13 1.13 0 0 1-.755.377 1.12 1.12 0 0 1-.776-.225c-.162-.127-.305-.294-.45-.44-.328-.326-.719-.62-.776-1.112a1.13 1.13 0 0 1 .143-.694 1 1 0 0 1 .092-.138 1.17 1.17 0 0 1 .804-.428M0 9.397c.02-.087.034-.175.06-.261a1.1 1.1 0 0 1 .455-.59c.125-.08.269-.139.415-.164.22-.038.513-.016.739-.016.228 0 .598-.025.808.022a1.16 1.16 0 0 1 .823.706 1.1 1.1 0 0 1 .07.482 1.1 1.1 0 0 1-.122.423 1.2 1.2 0 0 1-.196.272 1 1 0 0 1-.218.174 1.2 1.2 0 0 1-.398.153c-.204.035-.459.018-.669.018-.236.001-.478.012-.713-.003a1.1 1.1 0 0 1-.894-.542C.062 9.906.049 9.766 0 9.587zM8.882.5h.221a1.5 1.5 0 0 1 .53.203 1.12 1.12 0 0 1 .455.677c.044.197.045 1.365.008 1.57a1.134 1.134 0 0 1-1.083.923 1.1 1.1 0 0 1-.842-.358 1.14 1.14 0 0 1-.286-.543c-.041-.197-.019-.533-.02-.741 0-.234-.022-.591.018-.812.027-.146.087-.289.168-.413.2-.304.485-.433.83-.506M18 9.558c-.033.05-.038.124-.05.182a1.2 1.2 0 0 1-.09.255 1.1 1.1 0 0 1-.39.438 1.1 1.1 0 0 1-.398.163c-.23.044-.595.024-.834.022-.244 0-.512.025-.75-.028a1.3 1.3 0 0 1-.212-.071 1.2 1.2 0 0 1-.238-.145 1 1 0 0 1-.196-.199 1 1 0 0 1-.063-.092 1.11 1.11 0 0 1 .195-1.418 1.13 1.13 0 0 1 .569-.281c.232-.04.504-.018.74-.017.215 0 .436-.012.65.003q.099.006.196.03c.368.095.686.379.797.746.022.072.028.214.065.27L18 9.43zM8.967 18.5l-.01-.003c-.095-.026-.193-.035-.287-.062a1.1 1.1 0 0 1-.416-.223 1 1 0 0 1-.234-.284 1.1 1.1 0 0 1-.142-.385c-.033-.206-.012-.516-.011-.73 0-.223-.013-.454.002-.676a1 1 0 0 1 .044-.23 1.2 1.2 0 0 1 .223-.4 1.2 1.2 0 0 1 .261-.226 1.2 1.2 0 0 1 .355-.146 1.2 1.2 0 0 1 .217-.025 1.1 1.1 0 0 1 .63.18 1.1 1.1 0 0 1 .35.36q.015.023.028.048c.06.109.105.223.124.346.04.245.016.513.015.761 0 .21.011.423-.003.633q-.007.114-.04.224a1.13 1.13 0 0 1-.54.68c-.095.05-.19.085-.296.109-.064.014-.14.02-.198.049zM8.822 4.996c1.147-.054 2.302.38 3.157 1.139.938.833 1.432 1.935 1.503 3.18a4 4 0 0 1-.022.625 4.5 4.5 0 0 1-.376 1.401 5 5 0 0 1-.302.561 4 4 0 0 1-.262.372 4.3 4.3 0 0 1-.802.787 4.7 4.7 0 0 1-.878.525 4.7 4.7 0 0 1-.806.278c-.289.068-.578.1-.874.117-1.119.063-2.272-.362-3.115-1.093a5 5 0 0 1-.463-.466 4.5 4.5 0 0 1-.785-1.312A4.49 4.49 0 0 1 7.55 5.232a5 5 0 0 1 .429-.122 5.5 5.5 0 0 1 .844-.114m.044 1.687c-.776.049-1.473.37-1.99.954a2.78 2.78 0 0 0-.689 2.033 2.8 2.8 0 0 0 .573 1.53 2.6 2.6 0 0 0 .326.356l.051.047c.573.503 1.221.701 1.975.691.693-.004 1.393-.34 1.875-.827a2.8 2.8 0 0 0 .791-2.3 2.6 2.6 0 0 0-.094-.472 3 3 0 0 0-.116-.323 3 3 0 0 0-.307-.536 2.6 2.6 0 0 0-.267-.315 2.8 2.8 0 0 0-.66-.498 2.8 2.8 0 0 0-1.187-.338 3 3 0 0 0-.207-.004q-.038 0-.074.002"/></g><defs><clipPath id="a"><path d="M0 .5h18v18H0z"/></clipPath></defs></svg>